# xmcd
#
# Track frame offsets:
#	150
#	11687
#	20447
#	25892
#	38273
#	49144
#	57600
#	63651
#	74083
#	80428
#	102436
#	133253
#	151235
#	161342
#	168391
#	178753
#	188858
#	195508
#	207214
#	217564
#	247557
#	275002
#	303971
#
# Disc length: 4320 seconds
#
# Revision: 0
# Processed by: cddbd v1.5.1PL0 Copyright (c) Steve Scherf et al.
# Submitted via: dBpowerAMP V4.0
#
DISCID=3910de17
DTITLE=Ýlker and Sedat - Ýþte Yeniden Rumeli
DYEAR=2003
DGENRE=Country
TTITLE0=Varna
TTITLE1=Kaminite
TTITLE2=Potobüs
TTITLE3=Vay Sürmeli
TTITLE4=Canoriye
TTITLE5=Zeytin Yaðlý
TTITLE6=Manastýr
TTITLE7=Þote
TTITLE8=Pavlemipie
TTITLE9=Ararým
TTITLE10=Kadifeden Kesesi
TTITLE11=Yüksek Yüksek Tepeler
TTITLE12=Elmas
TTITLE13=Versinler
TTITLE14=Sarý Kavun
TTITLE15=Bursanýn Ufak Tefek Taþlarý
TTITLE16=Arabaya Taþ Koydum
TTITLE17=Kýzýlcýklarý Oldu Mu
TTITLE18=Damat
TTITLE19=Pravo Horo
TTITLE20=Kasap
TTITLE21=Payduþka
TTITLE22=exktra
EXTD=Ýþte Yeniden Rumeli
EXTT0=
EXTT1=
EXTT2=
EXTT3=
EXTT4=
EXTT5=
EXTT6=
EXTT7=
EXTT8=
EXTT9=
EXTT10=
EXTT11=
EXTT12=
EXTT13=
EXTT14=
EXTT15=
EXTT16=
EXTT17=
EXTT18=
EXTT19=
EXTT20=
EXTT21=
EXTT22=
PLAYORDER=
